<svg width="100" height="100" viewBox="0 0 100 100" fill="none" xmlns="http://www.w3.org/2000/svg">
<path fill-rule="evenodd" clip-rule="evenodd" d="M9.81335 7.0889L17.0828 2.00092C22.0896 -1.50439 29.0181 -0.284248 32.5244 4.72256C35.053 8.33158 35.127 12.938 33.0934 16.547C31.1482 20 26.8664 21.3536 24.9736 18.1369L27.2587 16.5398C30.268 14.4395 31.0003 10.2831 28.8928 7.27377C26.7925 4.26445 22.6361 3.53218 19.6268 5.6397L12.3573 10.7277C11.3509 11.4302 9.96846 11.1858 9.26595 10.1803C8.56345 9.17386 8.80784 7.7914 9.81335 7.0889ZM24.714 12.9073L17.4445 17.9952V17.9961C12.4377 21.5087 5.50917 20.2804 2.00386 15.2745C-0.524793 11.6655 -0.598741 7.05817 1.43483 3.45006C3.38002 -0.00384983 7.66088 -1.35655 9.55376 1.85928L7.26859 3.45637C4.25927 5.55667 3.52701 9.71308 5.63452 12.7224C7.73482 15.7317 11.8912 16.464 14.9006 14.3565L22.17 9.26849C23.1764 8.56599 24.5589 8.81037 25.2614 9.81588C25.9639 10.8223 25.7195 12.2048 24.714 12.9073Z" fill="#0B2A3D"/>
</svg>